<?xml version="1.0" encoding="UTF-8" standalone="no"?><svg xmlns="http://www.w3.org/2000/svg" xmlns:xlink="http://www.w3.org/1999/xlink" contentStyleType="text/css" height="511px" preserveAspectRatio="none" style="width:462px;height:511px;background:#FFFFFF;" version="1.1" viewBox="0 0 462 511" width="462px" zoomAndPan="magnify"><defs/><g><!--cluster DeploymentMachine--><g id="cluster_DeploymentMachine"><polygon fill="none" points="16,16,26,6,445,6,445,484.33,435,494.33,16,494.33,16,16" style="stroke:#181818;stroke-width:1.0;"/><line style="stroke:#181818;stroke-width:1.0;" x1="435" x2="445" y1="16" y2="6"/><line style="stroke:#181818;stroke-width:1.0;" x1="16" x2="435" y1="16" y2="16"/><line style="stroke:#181818;stroke-width:1.0;" x1="435" x2="435" y1="16" y2="494.33"/><text fill="#000000" font-family="sans-serif" font-size="20" font-style="italic" lengthAdjust="spacing" textLength="81" x="186" y="38.3359">«device»</text><text fill="#000000" font-family="sans-serif" font-size="20" font-weight="bold" lengthAdjust="spacing" textLength="211" x="121" y="61.8906">DeploymentMachine</text></g><!--entity MySQL--><g id="elem_MySQL"><polygon fill="#F1F1F1" points="263.5,411.22,273.5,401.22,412.5,401.22,412.5,468.3294,402.5,478.3294,263.5,478.3294,263.5,411.22" style="stroke:#181818;stroke-width:0.5;"/><line style="stroke:#181818;stroke-width:0.5;" x1="402.5" x2="412.5" y1="411.22" y2="401.22"/><line style="stroke:#181818;stroke-width:0.5;" x1="263.5" x2="402.5" y1="411.22" y2="411.22"/><line style="stroke:#181818;stroke-width:0.5;" x1="402.5" x2="402.5" y1="411.22" y2="478.3294"/><text fill="#000000" font-family="sans-serif" font-size="20" font-style="italic" lengthAdjust="spacing" textLength="109" x="278.5" y="440.5559">«container»</text><text fill="#000000" font-family="sans-serif" font-size="20" lengthAdjust="spacing" textLength="65" x="300.5" y="464.1106">MySQL</text></g><!--entity Adminer--><g id="elem_Adminer"><polygon fill="#F1F1F1" points="276.5,249.11,286.5,239.11,425.5,239.11,425.5,306.2194,415.5,316.2194,276.5,316.2194,276.5,249.11" style="stroke:#181818;stroke-width:0.5;"/><line style="stroke:#181818;stroke-width:0.5;" x1="415.5" x2="425.5" y1="249.11" y2="239.11"/><line style="stroke:#181818;stroke-width:0.5;" x1="276.5" x2="415.5" y1="249.11" y2="249.11"/><line style="stroke:#181818;stroke-width:0.5;" x1="415.5" x2="415.5" y1="249.11" y2="316.2194"/><text fill="#000000" font-family="sans-serif" font-size="20" font-style="italic" lengthAdjust="spacing" textLength="109" x="291.5" y="278.4459">«container»</text><text fill="#000000" font-family="sans-serif" font-size="20" lengthAdjust="spacing" textLength="83" x="304.5" y="302.0006">Adminer</text></g><!--entity Redis--><g id="elem_Redis"><polygon fill="#F1F1F1" points="67.5,411.22,77.5,401.22,216.5,401.22,216.5,468.3294,206.5,478.3294,67.5,478.3294,67.5,411.22" style="stroke:#181818;stroke-width:0.5;"/><line style="stroke:#181818;stroke-width:0.5;" x1="206.5" x2="216.5" y1="411.22" y2="401.22"/><line style="stroke:#181818;stroke-width:0.5;" x1="67.5" x2="206.5" y1="411.22" y2="411.22"/><line style="stroke:#181818;stroke-width:0.5;" x1="206.5" x2="206.5" y1="411.22" y2="478.3294"/><text fill="#000000" font-family="sans-serif" font-size="20" font-style="italic" lengthAdjust="spacing" textLength="109" x="82.5" y="440.5559">«container»</text><text fill="#000000" font-family="sans-serif" font-size="20" lengthAdjust="spacing" textLength="53" x="110.5" y="464.1106">Redis</text></g><!--entity Backend--><g id="elem_Backend"><polygon fill="#F1F1F1" points="48,249.11,58,239.11,236,239.11,236,306.2194,226,316.2194,48,316.2194,48,249.11" style="stroke:#181818;stroke-width:0.5;"/><line style="stroke:#181818;stroke-width:0.5;" x1="226" x2="236" y1="249.11" y2="239.11"/><line style="stroke:#181818;stroke-width:0.5;" x1="48" x2="226" y1="249.11" y2="249.11"/><line style="stroke:#181818;stroke-width:0.5;" x1="226" x2="226" y1="249.11" y2="316.2194"/><text fill="#000000" font-family="sans-serif" font-size="20" font-style="italic" lengthAdjust="spacing" textLength="148" x="63" y="278.4459">«node process»</text><text fill="#000000" font-family="sans-serif" font-size="20" lengthAdjust="spacing" textLength="81" x="96.5" y="302.0006">Backend</text></g><!--entity Frontend--><g id="elem_Frontend"><polygon fill="#F1F1F1" points="32,87,42,77,220,77,220,144.1094,210,154.1094,32,154.1094,32,87" style="stroke:#181818;stroke-width:0.5;"/><line style="stroke:#181818;stroke-width:0.5;" x1="210" x2="220" y1="87" y2="77"/><line style="stroke:#181818;stroke-width:0.5;" x1="32" x2="210" y1="87" y2="87"/><line style="stroke:#181818;stroke-width:0.5;" x1="210" x2="210" y1="87" y2="154.1094"/><text fill="#000000" font-family="sans-serif" font-size="20" font-style="italic" lengthAdjust="spacing" textLength="148" x="47" y="116.3359">«node process»</text><text fill="#000000" font-family="sans-serif" font-size="20" lengthAdjust="spacing" textLength="86" x="78" y="139.8906">Frontend</text></g><!--entity Browser--><g id="elem_Browser"><polygon fill="#F1F1F1" points="295,87,305,77,429,77,429,144.1094,419,154.1094,295,154.1094,295,87" style="stroke:#181818;stroke-width:0.5;"/><line style="stroke:#181818;stroke-width:0.5;" x1="419" x2="429" y1="87" y2="77"/><line style="stroke:#181818;stroke-width:0.5;" x1="295" x2="419" y1="87" y2="87"/><line style="stroke:#181818;stroke-width:0.5;" x1="419" x2="419" y1="87" y2="154.1094"/><text fill="#000000" font-family="sans-serif" font-size="20" font-style="italic" lengthAdjust="spacing" textLength="94" x="310" y="116.3359">«process»</text><text fill="#000000" font-family="sans-serif" font-size="20" lengthAdjust="spacing" textLength="76" x="319" y="139.8906">Browser</text></g><!--link Frontend to Backend--><g id="link_Frontend_Backend"><path d="M129.79,154.5 C132.33,179.93 135.67,213.29 138.21,238.72 " fill="none" id="Frontend-Backend" style="stroke:#181818;stroke-width:1.0;"/><text fill="#000000" font-family="sans-serif" font-size="20" lengthAdjust="spacing" textLength="39" x="136" y="204.4459">http</text><text fill="#000000" font-family="sans-serif" font-size="20" lengthAdjust="spacing" textLength="52" x="81.276" y="226.747">5001</text></g><!--link Backend to MySQL--><g id="link_Backend_MySQL"><path d="M188.45,316.61 C219.58,342.04 260.41,375.4 291.54,400.83 " fill="none" id="Backend-MySQL" style="stroke:#181818;stroke-width:1.0;"/><text fill="#000000" font-family="sans-serif" font-size="20" lengthAdjust="spacing" textLength="59" x="252" y="366.5559">tcp/ip</text><text fill="#000000" font-family="sans-serif" font-size="20" lengthAdjust="spacing" textLength="52" x="227.5388" y="388.857">3306</text></g><!--link Backend to Redis--><g id="link_Backend_Redis"><path d="M142,316.61 C142,342.04 142,375.4 142,400.83 " fill="none" id="Backend-Redis" style="stroke:#181818;stroke-width:1.0;"/><text fill="#000000" font-family="sans-serif" font-size="20" lengthAdjust="spacing" textLength="59" x="143" y="366.5559">tcp/ip</text><text fill="#000000" font-family="sans-serif" font-size="20" lengthAdjust="spacing" textLength="52" x="85.6938" y="388.857">6379</text></g><!--link Adminer to MySQL--><g id="link_Adminer_MySQL"><path d="M347.92,316.61 C345.85,342.04 343.15,375.4 341.08,400.83 " fill="none" id="Adminer-MySQL" style="stroke:#181818;stroke-width:1.0;"/><text fill="#000000" font-family="sans-serif" font-size="20" lengthAdjust="spacing" textLength="59" x="346" y="366.5559">tcp/ip</text><text fill="#000000" font-family="sans-serif" font-size="20" lengthAdjust="spacing" textLength="52" x="285.2839" y="388.857">3306</text></g><!--link Frontend to Browser--><g id="link_Frontend_Browser"><path d="M220.29,115.56 C245.2,115.56 271.58,115.56 294.73,115.56 " fill="none" id="Frontend-Browser" style="stroke:#181818;stroke-width:1.0;"/><text fill="#000000" font-family="sans-serif" font-size="20" lengthAdjust="spacing" textLength="39" x="238" y="107.8959">http</text><text fill="#000000" font-family="sans-serif" font-size="20" lengthAdjust="spacing" textLength="52" x="227.9961" y="135.6508">3000</text></g><!--link Browser to Adminer--><g id="link_Browser_Adminer"><path d="M359.39,154.5 C357.65,179.93 355.35,213.29 353.61,238.72 " fill="none" id="Browser-Adminer" style="stroke:#181818;stroke-width:1.0;"/><text fill="#000000" font-family="sans-serif" font-size="20" lengthAdjust="spacing" textLength="39" x="358" y="204.4459">http</text><text fill="#000000" font-family="sans-serif" font-size="20" lengthAdjust="spacing" textLength="52" x="297.736" y="226.747">8080</text></g><!--SRC=[VP31Ri8m44Jl_egLxr5TebAAKAHMY1CSMhx0iXTXaTYMROeeuj-xIJ1LggQ-sVCyExFnOAoNGJQrKmVKe74dZtLQEPksvWjX8XYpJYCiqTVktA1D6wdsnY8i5Xe_ZSAgWWi3EXstEM_VrwGfSf24XQfYF-ghRjgtKVq3jOcZwfkaZ5QJtbrzS0fZ722hG3_7cRjS5C2VX7ZasNGE-vHyJ-KvBLIMOihxLdD8oZ-OFw1f-Vp2-_13AFVzrwdl5jmfTflv5JaBHOsxrDe88VYzo21s9ecQYHbHj_4twCg-0G00]--></g></svg>